# xmcd
#
# Track frame offsets:
#	150
#	10448
#	27090
#	39038
#	53519
#	67561
#	77391
#	88447
#	98304
#	108449
#	117877
#	129082
#	143212
#	153810
#	166957
#	174420
#	186967
#	198184
#	216736
#
# Disc length: 3071 seconds
#
# Revision: 1
# Processed by: cddbd v1.4PL0 Copyright (c) Steve Scherf et al.
# Submitted via: audiograbber 1.81.02
#
DISCID=e30bfd13
DTITLE=Gilbert Becaud - becaulogie 1
DYEAR=1900
DGENRE=
TTITLE0=Gilbert Bécaud - Viens
TTITLE1=Gilbert Bécaud - Donne-moi
TTITLE2=Gilbert Bécaud - Quant tu danses
TTITLE3=Gilbert Bécaud - La ballade des baladins
TTITLE4=Gilbert Bécaud - Les croix
TTITLE5=Gilbert Bécaud - Un nouveau printemps tout 
TTITLE6=Gilbert Bécaud - Meque-meque
TTITLE7=Gilbert Bécaud - Mes mains
TTITLE8=Gilbert Bécaud - Ah! Dites-moi pourquoi je 
TTITLE9=Gilbert Bécaud - C'était mon copain
TTITLE10=Gilbert Bécaud - Lassez faire, laissez dire
TTITLE11=Gilbert Bécaud - Que toi
TTITLE12=Gilbert Bécaud - Le marchand des ballons
TTITLE13=Gilbert Bécaud - Je veux te dire adieu
TTITLE14=Gilbert Bécaud - Si, si, si, la vie est bel
TTITLE15=Gilbert Bécaud - Je t'appartiens
TTITLE16=Gilbert Bécaud - Berceuse pour Gaya
TTITLE17=Gilbert Bécaud - Alors raconte...
TTITLE18=Gilbert Bécaud - Marianne de ma jeunesse
EXTD=
EXTT0=
EXTT1=
EXTT2=
EXTT3=
EXTT4=
EXTT5=
EXTT6=
EXTT7=
EXTT8=
EXTT9=
EXTT10=
EXTT11=
EXTT12=
EXTT13=
EXTT14=
EXTT15=
EXTT16=
EXTT17=
EXTT18=
PLAYORDER=
